HIERARCHY
ROOT Hips
{
	OFFSET 0.000000 71.427986 0.000000
	CHANNELS 6 Xposition Yposition Zposition Xrotation Yrotation Zrotation
	JOINT Pelvis
	{
		OFFSET 0.000000 0.000000 0.000000
		CHANNELS 3 Xrotation Yrotation Zrotation
		JOINT LeftUpLeg
		{
			OFFSET 6.797100 -2.508499 -1.318700
			CHANNELS 3 Xrotation Yrotation Zrotation
			JOINT LeftLeg
			{
				OFFSET 0.069008 -29.241863 0.690200
				CHANNELS 3 Xrotation Yrotation Zrotation
				JOINT LeftFoot
				{
					OFFSET -0.069008 -29.568123 -0.266800
					CHANNELS 3 Xrotation Yrotation Zrotation
					JOINT LeftToeBase
					{
						OFFSET 3.145500 -8.631000 16.059900
						CHANNELS 3 Xrotation Yrotation Zrotation
						End Site
						{
							OFFSET 0.000000 18.501587 0.000000
						}
					}
				}
			}
			JOINT Left_ShortSleeve
			{
				OFFSET 0.265923 -10.480953 1.153800
				CHANNELS 3 Xrotation Yrotation Zrotation
				End Site
				{
					OFFSET 1.725763 19.823879 0.000000
				}
			}
		}
		JOINT RightUpLeg
		{
			OFFSET -6.797100 -2.508499 -1.318700
			CHANNELS 3 Xrotation Yrotation Zrotation
			JOINT RightLeg
			{
				OFFSET -0.082453 -29.241932 0.688000
				CHANNELS 3 Xrotation Yrotation Zrotation
				JOINT RightFoot
				{
					OFFSET 0.082453 -29.568058 -0.264600
					CHANNELS 3 Xrotation Yrotation Zrotation
					JOINT RightToeBase
					{
						OFFSET -3.115300 -8.682800 16.113400
						CHANNELS 3 Xrotation Yrotation Zrotation
						End Site
						{
							OFFSET 0.000000 18.567114 0.000000
						}
					}
				}
			}
			JOINT Right_ShortSleeve
			{
				OFFSET -0.265923 -10.480953 1.153800
				CHANNELS 3 Xrotation Yrotation Zrotation
				End Site
				{
					OFFSET -1.725766 19.823910 0.000000
				}
			}
		}
	}
	JOINT Spine
	{
		OFFSET 0.000000 13.368103 0.470500
		CHANNELS 3 Xrotation Yrotation Zrotation
		JOINT Spine1
		{
			OFFSET 0.147000 13.837402 0.538800
			CHANNELS 3 Xrotation Yrotation Zrotation
			JOINT Spine2
			{
				OFFSET 0.168000 16.242897 -1.435500
				CHANNELS 3 Xrotation Yrotation Zrotation
				JOINT Neck
				{
					OFFSET 0.217200 18.631500 -1.679100
					CHANNELS 3 Xrotation Yrotation Zrotation
					JOINT Head
					{
						OFFSET 0.000000 6.599396 1.385900
						CHANNELS 3 Xrotation Yrotation Zrotation
						JOINT Hat
						{
							OFFSET -0.532200 27.220596 -10.096100
							CHANNELS 3 Xrotation Yrotation Zrotation
							End Site
							{
								OFFSET 0.000000 22.029861 0.000000
							}
						}
						JOINT HairD
						{
							OFFSET -10.777400 17.437393 -1.325900
							CHANNELS 3 Xrotation Yrotation Zrotation
							JOINT HairD1
							{
								OFFSET -3.290299 -11.051193 1.062200
								CHANNELS 3 Xrotation Yrotation Zrotation
								End Site
								{
									OFFSET 0.000000 11.579437 0.000000
								}
							}
						}
						JOINT HairB
						{
							OFFSET -10.777400 17.437393 1.467900
							CHANNELS 3 Xrotation Yrotation Zrotation
							JOINT HairB1
							{
								OFFSET -1.561200 -12.956299 3.590200
								CHANNELS 3 Xrotation Yrotation Zrotation
								End Site
								{
									OFFSET 0.000000 13.534866 0.000000
								}
							}
						}
						JOINT HairA
						{
							OFFSET 9.713100 17.437393 1.467900
							CHANNELS 3 Xrotation Yrotation Zrotation
							JOINT HairA1
							{
								OFFSET 1.561200 -12.956299 3.590200
								CHANNELS 3 Xrotation Yrotation Zrotation
								End Site
								{
									OFFSET 0.000000 13.534866 0.000000
								}
							}
						}
						JOINT HairC
						{
							OFFSET 9.713100 17.437393 -1.325900
							CHANNELS 3 Xrotation Yrotation Zrotation
							JOINT HairC1
							{
								OFFSET 3.290300 -11.051193 1.062200
								CHANNELS 3 Xrotation Yrotation Zrotation
								End Site
								{
									OFFSET 0.000000 11.579437 0.000000
								}
							}
						}
					}
				}
				JOINT LeftShoulder
				{
					OFFSET 5.101800 15.108002 -2.763700
					CHANNELS 3 Xrotation Yrotation Zrotation
					JOINT LeftArm
					{
						OFFSET 9.825497 2.506317 -1.597400
						CHANNELS 3 Xrotation Yrotation Zrotation
						JOINT LeftForeArm
						{
							OFFSET 21.966244 0.000000 0.000000
							CHANNELS 3 Xrotation Yrotation Zrotation
							JOINT LeftHand
							{
								OFFSET 33.879036 0.000000 0.000000
								CHANNELS 3 Xrotation Yrotation Zrotation
								JOINT LeftHandThumb1
								{
									OFFSET 6.715286 -2.359680 3.363841
									CHANNELS 3 Xrotation Yrotation Zrotation
									JOINT LeftHandThumb2
									{
										OFFSET 2.507072 -1.447464 1.447461
										CHANNELS 3 Xrotation Yrotation Zrotation
										JOINT LeftHandThumb3
										{
											OFFSET 2.898338 -1.673355 1.673357
											CHANNELS 3 Xrotation Yrotation Zrotation
											End Site
											{
												OFFSET -0.295959 3.727692 -0.131651
											}
										}
									}
								}
								JOINT LeftHandIndex1
								{
									OFFSET 14.190811 -0.254547 3.840278
									CHANNELS 3 Xrotation Yrotation Zrotation
									JOINT LeftHandIndex2
									{
										OFFSET 3.551727 0.000000 -0.000000
										CHANNELS 3 Xrotation Yrotation Zrotation
										JOINT LeftHandIndex3
										{
											OFFSET 2.894196 0.000000 0.000000
											CHANNELS 3 Xrotation Yrotation Zrotation
											End Site
											{
												OFFSET -1.000603 2.690872 0.366626
											}
										}
									}
								}
								JOINT LeftHandMiddle1
								{
									OFFSET 13.776489 0.000000 0.000000
									CHANNELS 3 Xrotation Yrotation Zrotation
									JOINT LeftHandMiddle2
									{
										OFFSET 3.438232 0.000000 0.000000
										CHANNELS 3 Xrotation Yrotation Zrotation
										JOINT LeftHandMiddle3
										{
											OFFSET 3.691551 0.000000 0.000000
											CHANNELS 3 Xrotation Yrotation Zrotation
											End Site
											{
												OFFSET -1.082298 3.499527 0.457670
											}
										}
									}
								}
								JOINT LeftHandRing1
								{
									OFFSET 13.966164 -0.268127 -3.067488
									CHANNELS 3 Xrotation Yrotation Zrotation
									JOINT LeftHandRing2
									{
										OFFSET 3.162567 0.000000 0.000000
										CHANNELS 3 Xrotation Yrotation Zrotation
										JOINT LeftHandRing3
										{
											OFFSET 3.324348 0.000000 0.000000
											CHANNELS 3 Xrotation Yrotation Zrotation
											End Site
											{
												OFFSET -0.861900 3.184998 0.405154
											}
										}
									}
								}
								JOINT LeftHandPinky1
								{
									OFFSET 13.131393 -0.168503 -5.746925
									CHANNELS 3 Xrotation Yrotation Zrotation
									JOINT LeftHandPinky2
									{
										OFFSET 2.849182 0.000000 0.000000
										CHANNELS 3 Xrotation Yrotation Zrotation
										JOINT LeftHandPinky3
										{
											OFFSET 2.805038 0.000000 0.000000
											CHANNELS 3 Xrotation Yrotation Zrotation
											End Site
											{
												OFFSET -0.882500 2.642609 0.325652
											}
										}
									}
								}
							}
							JOINT Left_Sleeve
							{
								OFFSET 6.592125 -0.646545 0.805568
								CHANNELS 3 Xrotation Yrotation Zrotation
								End Site
								{
									OFFSET -0.000179 20.275787 -0.000000
								}
							}
						}
					}
				}
				JOINT RightShoulder
				{
					OFFSET -5.731700 15.108002 -2.763700
					CHANNELS 3 Xrotation Yrotation Zrotation
					JOINT RightArm
					{
						OFFSET -9.825497 2.506317 -1.597400
						CHANNELS 3 Xrotation Yrotation Zrotation
						JOINT RightForeArm
						{
							OFFSET -21.966242 0.000000 0.000000
							CHANNELS 3 Xrotation Yrotation Zrotation
							JOINT RightHand
							{
								OFFSET -33.879032 0.000000 0.000000
								CHANNELS 3 Xrotation Yrotation Zrotation
								JOINT RightHandThumb1
								{
									OFFSET -6.715286 -2.359680 3.363841
									CHANNELS 3 Xrotation Yrotation Zrotation
									JOINT RightHandThumb2
									{
										OFFSET -2.507072 -1.447464 1.447461
										CHANNELS 3 Xrotation Yrotation Zrotation
										JOINT RightHandThumb3
										{
											OFFSET -2.898338 -1.673355 1.673357
											CHANNELS 3 Xrotation Yrotation Zrotation
											End Site
											{
												OFFSET 0.295959 3.727692 -0.131651
											}
										}
									}
								}
								JOINT RightHandIndex1
								{
									OFFSET -14.190811 -0.254547 3.840278
									CHANNELS 3 Xrotation Yrotation Zrotation
									JOINT RightHandIndex2
									{
										OFFSET -3.551727 0.000000 -0.000000
										CHANNELS 3 Xrotation Yrotation Zrotation
										JOINT RightHandIndex3
										{
											OFFSET -2.894196 0.000000 0.000000
											CHANNELS 3 Xrotation Yrotation Zrotation
											End Site
											{
												OFFSET 1.000603 2.690872 0.366626
											}
										}
									}
								}
								JOINT RightHandMiddle1
								{
									OFFSET -13.776489 0.000000 0.000000
									CHANNELS 3 Xrotation Yrotation Zrotation
									JOINT RightHandMiddle2
									{
										OFFSET -3.438232 0.000000 0.000000
										CHANNELS 3 Xrotation Yrotation Zrotation
										JOINT RightHandMiddle3
										{
											OFFSET -3.691551 0.000000 0.000000
											CHANNELS 3 Xrotation Yrotation Zrotation
											End Site
											{
												OFFSET 1.082298 3.499527 0.457670
											}
										}
									}
								}
								JOINT RightHandRing1
								{
									OFFSET -13.966164 -0.268127 -3.067488
									CHANNELS 3 Xrotation Yrotation Zrotation
									JOINT RightHandRing2
									{
										OFFSET -3.162567 0.000000 0.000000
										CHANNELS 3 Xrotation Yrotation Zrotation
										JOINT RightHandRing3
										{
											OFFSET -3.324348 0.000000 0.000000
											CHANNELS 3 Xrotation Yrotation Zrotation
											End Site
											{
												OFFSET 0.861900 3.184998 0.405154
											}
										}
									}
								}
								JOINT RightHandPinky1
								{
									OFFSET -13.131393 -0.168503 -5.746925
									CHANNELS 3 Xrotation Yrotation Zrotation
									JOINT RightHandPinky2
									{
										OFFSET -2.849182 0.000000 0.000000
										CHANNELS 3 Xrotation Yrotation Zrotation
										JOINT RightHandPinky3
										{
											OFFSET -2.805038 0.000000 0.000000
											CHANNELS 3 Xrotation Yrotation Zrotation
											End Site
											{
												OFFSET 0.882500 2.642609 0.325652
											}
										}
									}
								}
							}
							JOINT Right_Sleeve
							{
								OFFSET -6.592125 -0.646545 0.805568
								CHANNELS 3 Xrotation Yrotation Zrotation
								End Site
								{
									OFFSET 0.000179 20.275787 -0.000000
								}
							}
						}
					}
				}
				JOINT Bind_Right_JacketString
				{
					OFFSET -3.534800 11.969597 7.200700
					CHANNELS 3 Xrotation Yrotation Zrotation
					JOINT Bind_Right_JacketString1
					{
						OFFSET -0.319900 -6.102600 2.794100
						CHANNELS 3 Xrotation Yrotation Zrotation
						End Site
						{
							OFFSET 0.000000 6.719452 0.000000
						}
					}
				}
				JOINT Bind_Left_JacketString
				{
					OFFSET 2.904800 11.969597 7.200700
					CHANNELS 3 Xrotation Yrotation Zrotation
					JOINT Bind_Left_JacketString1
					{
						OFFSET 0.364800 -5.904503 3.186800
						CHANNELS 3 Xrotation Yrotation Zrotation
						End Site
						{
							OFFSET 0.000000 6.719513 0.000000
						}
					}
				}
				JOINT HairE
				{
					OFFSET 5.915200 17.612701 -11.592200
					CHANNELS 3 Xrotation Yrotation Zrotation
					JOINT HairE1
					{
						OFFSET 0.289200 -7.171898 -1.284500
						CHANNELS 3 Xrotation Yrotation Zrotation
						End Site
						{
							OFFSET 0.000000 7.291756 0.000000
						}
					}
				}
				JOINT HairF
				{
					OFFSET -0.864800 17.612701 -11.592200
					CHANNELS 3 Xrotation Yrotation Zrotation
					JOINT HairF1
					{
						OFFSET 0.000000 -14.087097 -2.127501
						CHANNELS 3 Xrotation Yrotation Zrotation
						End Site
						{
							OFFSET 0.000000 14.246841 0.000000
						}
					}
				}
				JOINT HairG
				{
					OFFSET -8.087700 17.612701 -11.592200
					CHANNELS 3 Xrotation Yrotation Zrotation
					JOINT HairG1
					{
						OFFSET -0.293600 -6.081398 -0.910100
						CHANNELS 3 Xrotation Yrotation Zrotation
						End Site
						{
							OFFSET 0.000000 6.156120 0.000000
						}
					}
				}
			}
		}
	}
	JOINT Pouch
	{
		OFFSET 0.000000 4.394501 10.847300
		CHANNELS 3 Xrotation Yrotation Zrotation
		End Site
		{
			OFFSET 0.000000 21.880577 0.000000
		}
	}
	JOINT Bag
	{
		OFFSET -13.229000 4.813004 -0.593300
		CHANNELS 3 Xrotation Yrotation Zrotation
		End Site
		{
			OFFSET 0.000000 21.880577 0.000000
		}
	}
	JOINT OccupyGuyFacialAnim_Joint
	{
		OFFSET 1.000000 -70.206398 -1.655000
		CHANNELS 3 Xrotation Yrotation Zrotation
		End Site
		{
			OFFSET 0.000000 21.880577 0.000000
		}
	}
}
MOTION
Frames: 4
Frame Time: 0.016667
0.285708 68.986397 -35.951103 168.746025 -64.256883 168.556610 0.000000 -0.000001 -0.000000 -28.551955 3.712455 14.833564 40.821155 -1.428830 -2.223571 -11.287293 1.712576 -4.837534 -0.000000 -0.000000 -0.000000 -0.000001 -0.000000 0.000000 -11.111566 -11.240300 7.818327 22.855167 11.349103 1.258389 -14.648626 -0.117924 -11.996955 0.000000 0.000002 -0.000000 0.000001 -0.000003 -0.000001 4.931557 1.797598 4.283618 -5.203247 2.467252 -3.030995 -5.047560 2.231933 -3.347160 0.930292 23.548879 10.139634 4.348299 27.823718 -14.089298 0.000000 0.000002 0.000000 0.000000 0.000002 0.000000 0.000000 0.000002 0.000000 0.000000 0.000002 0.000000 0.000000 0.000000 0.000000 0.000000 0.000002 0.000000 0.000000 0.000000 0.000000 0.000000 0.000002 0.000000 0.000000 0.000002 0.000000 1.079196 -0.344056 0.608159 7.615786 0.677531 -69.161703 8.512034 -19.175257 -8.473989 -0.253755 5.731265 10.881021 -1.204160 -0.037722 2.325161 0.318664 1.093454 0.433685 0.000002 -0.000003 -0.000001 0.780523 2.266560 -9.845923 -0.039194 0.057413 -8.823541 -0.000003 -0.000001 -0.000000 -0.057948 1.143084 -15.947761 -0.014716 -0.043613 -10.491588 -0.000000 0.000000 -0.000001 -0.956179 0.304858 -20.266069 0.002269 0.016825 -13.465763 0.000002 0.000000 -0.000002 -2.256734 -1.970753 -24.904432 -0.016577 -0.001851 -16.389719 -0.000002 0.000000 0.000003 0.000003 0.000001 0.000001 2.374283 -3.484725 16.761262 13.068525 30.203991 51.934791 13.595714 26.328841 -0.878552 -25.360448 0.110621 -14.410965 2.581833 -11.453548 -2.444549 -0.570762 -0.849133 0.050490 0.000000 -0.000001 0.000001 1.440382 0.413074 28.354762 -0.036430 -0.061697 22.129072 -0.000003 0.000000 -0.000003 1.194447 -2.816508 28.395484 -0.003748 0.018420 22.137620 -0.000000 -0.000001 -0.000003 2.678409 -6.989688 31.433726 -0.003189 0.002752 24.099356 -0.000000 0.000000 -0.000004 1.168961 -9.903088 35.638025 -0.027258 -0.005269 28.957024 -0.000000 -0.000001 0.000002 -0.000000 0.000001 -0.000001 -0.000000 0.000001 -0.000000 -0.000000 -0.000001 0.000000 -0.000000 0.000001 -0.000000 -0.000000 0.000001 -0.000000 -0.000000 0.000001 -0.000000 -0.000000 -0.000001 0.000000 -0.000000 0.000001 -0.000000 -0.000000 0.000001 -0.000000 -0.000000 0.000001 -0.000000 -0.000000 -0.000001 0.000000 0.000000 -0.000001 -0.000000 0.000000 -0.000001 -0.000000 0.000000 -0.000001 -0.000000 
0.098571 69.003517 -36.497585 169.982781 -61.352926 169.942551 -0.000000 -0.000000 -0.000000 -28.486188 0.352088 12.754287 40.518646 -1.999685 -2.203559 -11.080331 2.113403 -5.845045 0.000000 0.000002 -0.000000 -0.000000 0.000002 -0.000000 -10.537575 -9.954245 7.909680 22.361054 13.590256 1.829499 -14.254555 -0.537510 -13.019279 0.000000 0.000000 -0.000000 -0.000000 0.000003 -0.000001 5.160099 2.039905 4.085579 -5.105464 2.660216 -2.985249 -4.948700 2.420743 -3.321705 1.055487 22.542828 10.042749 3.926666 26.820355 -13.626390 -0.000000 -0.000001 0.000000 -0.000000 -0.000001 0.000000 -0.000000 -0.000001 0.000000 -0.000000 -0.000001 0.000001 -0.000000 0.000001 0.000000 -0.000000 -0.000001 0.000001 -0.000000 0.000001 0.000000 -0.000000 -0.000001 0.000000 -0.000000 -0.000001 0.000000 1.084987 -0.270535 0.764947 7.759401 1.002641 -69.954558 9.038372 -17.908093 -8.643474 -0.335426 5.197239 10.898096 -1.478757 -0.052897 2.856647 0.423965 1.338716 0.492549 0.000001 -0.000001 -0.000001 0.776362 2.123246 -10.418605 -0.038685 0.058192 -9.704965 0.000004 0.000002 0.000000 -0.070158 1.239202 -17.072143 -0.015191 -0.043084 -11.179847 0.000003 -0.000000 0.000001 -0.932939 0.718921 -21.232277 0.001388 0.016849 -14.059877 0.000001 -0.000001 -0.000001 -2.179900 -1.508463 -25.735048 -0.015922 -0.001815 -16.850620 0.000003 0.000000 0.000001 0.000000 -0.000001 0.000001 2.402567 -3.497408 16.751795 12.583205 31.110900 52.037770 13.766156 26.236980 -1.171556 -25.494559 0.419198 -14.057192 2.689861 -11.385039 -2.336693 -0.589397 -0.816122 0.061320 0.000001 0.000001 0.000001 1.424561 0.474522 28.171914 -0.036554 -0.061446 21.925419 -0.000001 0.000000 0.000000 1.214508 -2.843271 28.205633 -0.004083 0.018570 22.050427 0.000000 0.000000 -0.000001 2.743105 -7.190457 31.250492 -0.003112 0.002933 24.042215 -0.000001 0.000001 -0.000000 1.304917 -10.155914 35.440813 -0.027398 -0.004636 28.751770 -0.000001 -0.000000 0.000000 -0.000000 0.000001 0.000001 0.000000 0.000000 -0.000000 -0.000000 0.000000 -0.000000 0.000000 0.000000 -0.000000 0.000000 0.000000 -0.000000 0.000000 0.000000 -0.000000 -0.000000 0.000000 -0.000000 0.000000 0.000000 -0.000000 0.000000 0.000000 -0.000000 0.000000 0.000000 -0.000000 -0.000000 0.000000 -0.000000 -0.000000 -0.000000 -0.000000 -0.000000 -0.000000 -0.000000 -0.000000 -0.000000 -0.000000 
-0.102967 69.023514 -37.058437 171.007747 -58.467150 171.126237 0.000000 -0.000000 0.000000 -28.348883 -3.343086 10.594685 39.807954 -2.084988 -2.130425 -10.929071 2.460608 -6.191608 0.000000 0.000000 -0.000000 -0.000002 -0.000001 -0.000002 -9.922360 -8.685369 7.944821 21.837915 15.782911 2.391511 -13.855536 -0.928982 -13.990824 -0.000000 0.000000 -0.000000 -0.000001 0.000000 -0.000000 5.358475 2.247733 3.794261 -4.955288 2.804415 -2.879610 -4.801089 2.565714 -3.228154 1.136429 21.321716 9.663836 3.243140 25.509220 -12.836989 0.000000 -0.000000 0.000001 0.000000 -0.000000 0.000001 0.000000 -0.000000 0.000000 0.000000 -0.000000 0.000001 0.000000 0.000001 0.000000 0.000000 -0.000000 0.000001 0.000000 0.000001 0.000000 0.000000 -0.000000 0.000001 0.000000 -0.000000 0.000001 1.090521 -0.182194 0.891429 7.710986 1.275670 -70.804596 9.524822 -16.278605 -8.901416 -0.390368 4.458860 10.944908 -1.769595 -0.071481 3.420109 0.535336 1.598834 0.554610 0.000002 0.000001 -0.000001 0.768858 1.971736 -11.025883 -0.038089 0.058900 -10.639453 0.000002 0.000001 -0.000000 -0.080004 1.342130 -18.264402 -0.015678 -0.042502 -11.909594 0.000001 0.000000 -0.000001 -0.893364 1.157110 -22.256294 0.000516 0.016845 -14.689840 -0.000002 0.000001 -0.000001 -2.084344 -1.021299 -26.615722 -0.015239 -0.001746 -17.339245 -0.000006 -0.000001 0.000001 0.000005 0.000000 0.000000 2.414813 -3.468821 16.571752 11.779236 32.237824 52.296542 13.724219 25.885329 -1.445388 -25.372602 0.810137 -13.612451 2.749168 -11.300866 -2.257991 -0.586602 -0.825551 0.059892 0.000001 0.000000 -0.000001 1.416264 0.519344 27.896011 -0.036854 -0.061112 21.624304 -0.000001 -0.000001 -0.000002 1.234002 -2.874391 27.920253 -0.004612 0.018926 21.892957 0.000001 0.000000 -0.000001 2.793564 -7.399011 30.970902 -0.003034 0.003465 23.922116 0.000001 0.000001 -0.000001 1.432161 -10.393851 35.139691 -0.027690 -0.003761 28.434088 -0.000001 -0.000001 0.000000 0.000000 -0.000001 0.000001 -0.000000 -0.000003 -0.000000 -0.000000 -0.000002 -0.000000 -0.000000 -0.000003 -0.000000 -0.000000 -0.000003 -0.000000 -0.000000 -0.000003 -0.000000 -0.000000 -0.000002 -0.000000 -0.000000 -0.000003 -0.000000 -0.000000 -0.000003 -0.000000 -0.000000 -0.000003 -0.000000 -0.000000 -0.000002 -0.000000 0.000000 -0.000000 0.000000 0.000000 -0.000000 0.000000 0.000000 -0.000000 0.000000 
-0.309008 69.043488 -37.622997 171.864389 -55.588509 172.140807 0.000000 0.000002 -0.000000 -28.459373 -6.633714 8.713971 38.784628 -2.124073 -2.016113 -10.509131 2.824569 -7.027756 0.000000 -0.000001 0.000000 0.000001 0.000000 0.000000 -9.295247 -7.446860 7.927839 21.310545 17.929035 2.941941 -13.451921 -1.273806 -14.907926 -0.000000 0.000000 -0.000000 0.000000 -0.000001 0.000001 5.548333 2.436830 3.460377 -4.780148 2.924336 -2.745297 -4.630334 2.689124 -3.101842 1.155759 19.904763 9.110443 2.411542 23.932097 -11.826768 0.000000 0.000000 -0.000000 0.000000 0.000000 -0.000000 0.000000 0.000000 -0.000000 0.000000 0.000000 0.000000 0.000000 0.000000 -0.000000 0.000000 0.000000 0.000000 0.000000 0.000000 -0.000000 0.000000 0.000000 -0.000000 0.000000 0.000000 -0.000000 1.095807 -0.075118 0.979791 7.590591 1.535481 -71.647359 10.023778 -14.551996 -9.196453 -0.424800 3.666665 10.967941 -2.073306 -0.093872 4.009392 0.651486 1.871055 0.618938 -0.000002 -0.000001 0.000000 0.757641 1.813767 -11.660791 -0.037464 0.059739 -11.616596 -0.000000 0.000001 -0.000002 -0.085265 1.450688 -19.510855 -0.016161 -0.041858 -12.672609 0.000000 -0.000000 -0.000001 -0.835499 1.613783 -23.326414 -0.000334 0.016826 -15.348482 0.000002 0.000001 0.000000 -1.968862 -0.515654 -27.536509 -0.014512 -0.001567 -17.850269 -0.000005 -0.000002 0.000003 -0.000002 -0.000000 0.000001 2.421328 -3.425018 16.328211 10.845211 33.443878 52.653611 13.606751 25.436948 -1.713348 -25.161068 1.234113 -13.135273 2.763430 -11.202533 -2.206389 -0.565038 -0.874824 0.047900 -0.000002 0.000000 -0.000000 1.414815 0.548666 27.535109 -0.037201 -0.060759 21.233834 -0.000004 -0.000003 -0.000000 1.252671 -2.909473 27.547265 -0.005337 0.019414 21.671077 0.000001 0.000002 0.000001 2.829550 -7.614526 30.603134 -0.002891 0.004156 23.744106 -0.000000 0.000000 0.000002 1.549890 -10.618326 34.743533 -0.028185 -0.002642 28.013406 -0.000001 0.000001 -0.000001 -0.000001 0.000001 0.000001 0.000000 -0.000001 -0.000000 0.000000 -0.000001 -0.000000 0.000000 -0.000001 -0.000000 0.000000 -0.000001 -0.000000 0.000000 -0.000001 -0.000000 0.000000 -0.000001 -0.000000 0.000000 -0.000001 -0.000000 0.000000 -0.000001 -0.000000 0.000000 -0.000001 -0.000000 0.000000 -0.000001 -0.000000 0.000000 0.000002 -0.000000 0.000000 0.000002 -0.000000 0.000000 0.000002 -0.000000 
